# xmcd CD database file
#
# Track frame offsets:
#	150
#	24552
#	38312
#
# Disc length: 741 seconds
#
# Revision: 4
# Processed by: cddbd v1.5.1PL0 Copyright (c) Steve Scherf et al.
# Submitted via: CDex 1.51
#
DISCID=1402e303
DTITLE=Mr. Children - Sign
DYEAR=2004
DGENRE=JPop
TTITLE0=Sign
TTITLE1=妄想満月
TTITLE2=こんな風にひどく蒸し暑い日
EXTD=YEAR: 2004
EXTT0=
EXTT1=
EXTT2=
PLAYORDER=
